<svg width="59" height="23" viewBox="0 0 59 23" fill="none" xmlns="http://www.w3.org/2000/svg">
<path d="M19.424 23V0.599976H9.72801C7.72267 0.599976 5.99467 0.930642 4.54401 1.59198C3.09334 2.23198 1.97334 3.15998 1.18401 4.37598C0.394672 5.59198 7.62939e-06 7.04264 7.62939e-06 8.72798C7.62939e-06 10.392 0.394672 11.832 1.18401 13.048C1.97334 14.264 3.09334 15.2026 4.54401 15.864C5.99467 16.504 7.72267 16.824 9.72801 16.824H16.544L14.24 14.488V23H19.424ZM14.24 15.064L16.544 12.6H10.016C8.41601 12.6 7.22134 12.2586 6.43201 11.576C5.64267 10.8933 5.24801 9.94398 5.24801 8.72798C5.24801 7.49064 5.64267 6.53064 6.43201 5.84798C7.22134 5.16531 8.41601 4.82398 10.016 4.82398H16.544L14.24 2.35998V15.064Z" fill="white"/>
<path d="M45.768 9.62398H56.552V13.656H45.768V9.62398ZM46.152 18.84H58.344V23H41V0.599976H57.928V4.75998H46.152V18.84Z" fill="white"/>
<path d="M35.36 0.599976H40.544V23H35.36V0.599976ZM25.184 23H20V0.599976H25.184V23ZM35.744 13.816H24.8V9.43198H35.744V13.816Z" fill="white"/>
</svg>
